<?xml version="1.0" encoding="UTF-8"?>
<svg width="17px" height="17px" viewBox="0 0 17 17" version="1.1" xmlns="http://www.w3.org/2000/svg" xmlns:xlink="http://www.w3.org/1999/xlink">
    <!-- Generator: Sketch 53.1 (72631) - https://sketchapp.com -->
    <title>Group 3@3x</title>
    <desc>Created with Sketch.</desc>
    <g id="页面-1" stroke="none" stroke-width="1" fill="none" fill-rule="evenodd">
        <g id="借款详情" transform="translate(-89.000000, -668.000000)">
            <g id="Group" transform="translate(90.000000, 622.000000)">
                <g id="Group-3" transform="translate(0.000000, 47.000000)">
                    <circle id="Oval-3" stroke="#FE4949" stroke-width="0.9" fill="#FE4949" cx="7.5" cy="7.5" r="7.5"></circle>
                    <path d="M7.4815851,10.8687623 L5.12740827,8.5280207 C5.08469576,8.48842933 5.05140155,8.44161816 5.02870728,8.39158327 C5.01647391,8.36216678 5.01146936,8.34611532 5.00764643,8.32972806 C5.00552644,8.32066133 5.00333695,8.31172893 5.00215532,8.3028301 C4.99996582,8.28728235 4.99979206,8.27163385 5.00013959,8.25585103 C5.00639529,8.16562033 5.04055835,8.08922477 5.11708637,8.01826925 C5.12283234,8.01350082 6.5163467,6.71467562 9.29762944,4.12179365 C9.44540289,3.98112509 9.64568945,3.93448182 9.86974765,4.13398336 C10.0779581,4.31954901 10.0081376,4.50723022 9.85845264,4.64595112 L6.71993004,8.26982051 L8.0459532,10.3505822 C8.19761909,10.4874226 8.24815122,10.6727196 8.03330279,10.879676 C7.83353754,11.0722264 7.63120051,11.0073825 7.4815851,10.8687623 Z" id="Page-1" fill="#FFFFFF" transform="translate(7.500000, 7.500000) scale(-1, 1) rotate(-90.000000) translate(-7.500000, -7.500000) "></path>
                </g>
            </g>
        </g>
    </g>
</svg>