<?xml version="1.0" encoding="UTF-8"?>
<svg width="16px" height="16px" viewBox="0 0 16 16" version="1.1" xmlns="http://www.w3.org/2000/svg" xmlns:xlink="http://www.w3.org/1999/xlink">
    <!-- Generator: Sketch 53.1 (72631) - https://sketchapp.com -->
    <title>tianxie</title>
    <desc>Created with Sketch.</desc>
    <g id="页面-1" stroke="none" stroke-width="1" fill="none" fill-rule="evenodd">
        <g id="借款详情" transform="translate(-146.000000, -193.000000)">
            <g id="tianxie" transform="translate(146.000000, 193.000000)">
                <g transform="translate(0.010096, 1.004368)">
                    <path d="M7.78046547,0.202129834 L7.78046547,1.20287834 L2.78146322,1.20287834 C2.22970468,1.20287834 1.78096434,1.64998413 1.78096434,2.20362684 L1.78096434,12.2058723 C1.78096434,12.4713414 1.88572863,12.7263314 2.07430433,12.9132077 C2.26113396,13.1000839 2.51606038,13.2066209 2.78146322,13.2066209 L12.7812138,13.2066209 C13.3329723,13.2066209 13.7817127,12.7595151 13.7817127,12.2058723 L13.7817127,7.20212983 L14.7822115,7.20212983 L14.7822115,12.2023793 C14.7822115,12.7333175 14.5709369,13.241551 14.1972776,13.61705 C13.8218723,13.992549 13.3137655,14.2021298 12.7829599,14.2021298 L2.78146322,14.2021298 C2.25065753,14.2021298 1.74255078,13.9908025 1.36714544,13.61705 C0.991740099,13.241551 0.782211538,12.7333175 0.782211538,12.2023793 L0.782211538,2.20188033 C0.782211538,1.67094221 0.993486171,1.16270868 1.36714544,0.787209675 C1.74255078,0.411710673 2.25065753,0.202129834 2.78146322,0.202129834 L7.78046547,0.202129834 Z" id="路径" fill="#23262C" fill-rule="nonzero"></path>
                    <path d="M12.9899038,0.995631639 L6.32651543,8.04822621" id="路径-2" stroke="#23262C" stroke-width="2" stroke-linecap="round"></path>
                </g>
            </g>
        </g>
    </g>
</svg>